<svg width="102" height="86" viewBox="0 0 102 86" fill="none" xmlns="http://www.w3.org/2000/svg">
<path d="M45.597 8.43906C45.597 8.43906 19.0796 12.5963 21.0904 50.4561C21.0977 50.5964 18.0244 52.6409 17.7836 52.8593C15.6406 54.8013 13.8426 57.2885 13.0563 60.1978C10.2566 70.5581 20.2663 81.2331 28.3609 84.0666C31.3844 85.1248 34.5802 85.6386 37.7823 85.7319C58.5985 86.3393 86.158 73.083 87.5734 47.1941C87.6241 46.2653 87.6367 45.3354 87.6128 44.4077C87.4873 39.492 86.3033 34.7046 84.5187 30.2595C84.5195 30.2597 72.9344 1.46771 45.597 8.43906Z" fill="#643D19"/>
<path d="M20.4191 50.8558C20.7063 51.5609 20.9931 52.4618 21.0733 52.9771C21.4154 55.1872 20.6608 57.4692 19.3499 59.1097C18.1052 60.6674 16.3273 61.6774 14.6057 62.0582C14.0244 62.1869 13.3207 62.2529 12.7051 62.2735C13.3516 55.8734 18.5525 52.0336 20.4191 50.8558Z" fill="#FF5C3C"/>
<path d="M57.7992 67.6769C52.8734 66.6149 49.8148 61.4149 50.9678 56.0625C52.1208 50.7101 57.0486 47.232 61.9745 48.294C66.9003 49.356 69.9588 54.5559 68.8058 59.9084C67.6529 65.2608 62.725 68.7389 57.7992 67.6769Z" fill="#FF5C3C"/>
<path d="M33.6847 52.7052C33.6847 52.7052 29.4782 48.6951 26.2217 52.4654Z" fill="#1D0C00"/>
<path d="M72.9058 72.6866C86.9096 79.7187 99.6181 62.0867 95.5466 52.175C92.9494 45.8526 85.3777 45.3607 80.9905 51.1355C78.4013 54.5437 76.3064 58.9002 75.117 63.0678" fill="#643D19"/>
<path d="M84.4389 56.9524C82.6373 58.789 81.1891 61.5132 79.409 63.0327C79.7379 60.49 80.2629 57.7747 81.4955 55.4834C82.747 53.1561 85.0232 51.2391 87.3408 51.3972C90.2131 51.5933 92.5782 54.9451 92.8825 57.9838C92.7006 56.1653 89.0495 54.9345 87.656 55.1067C85.474 59.2274 84.6295 67.3493 84.6295 67.3493C82.8114 62.7513 83.5472 59.135 84.4389 56.9524Z" fill="#1D0C00"/>
<path d="M21.8213 37.2339C23.2746 26.4022 28.684 18.5075 34.0329 17.5308L10.4171 14.2975L0.123047 50.7734L12.8392 64.414C12.0319 57.9474 18.1545 52.6259 21.3167 50.7734C20.913 48.1059 21.4849 40.6356 21.8213 37.2339Z" fill="#C4C4C4"/>
<path d="M15.1671 46.4711C16.4546 35.5125 26.4729 29.6649 31.3714 28.7295C30.3866 23.4007 28.2935 23.7281 24.1179 24.5561C9.5286 27.4491 7.16688 40.2377 7.3053 46.7543C12.735 47.5506 14.8922 47.5227 15.1671 46.4711Z" fill="#351700"/>
<path d="M15.2849 46.4287C15.464 47.5336 13.821 48.5134 11.6153 48.6172C9.40956 48.721 7.4763 47.9094 7.29723 46.8046C7.11817 45.6997 8.76112 44.7199 10.9669 44.6161C13.1726 44.5123 15.1058 45.3238 15.2849 46.4287Z" fill="#451E00"/>
<path d="M15.2077 46.154C16.6491 35.3999 26.5204 29.6558 31.3714 28.7295C31.5191 27.4218 27.8965 28.0119 23.9576 29.4703C13.8314 33.2195 11.0394 38.8474 11.1778 45.364C11.1933 45.3663 11.2087 45.3686 11.2241 45.3709C11.2595 46.4831 11.3656 47.9554 11.6153 48.6172C13.821 48.5134 15.464 47.5336 15.2849 46.4287C15.2698 46.3358 15.2435 46.2442 15.2077 46.154Z" fill="#C5900F"/>
<path d="M20.019 49.9989C20.9942 38.8598 30.7218 32.6042 35.53 31.4935C34.4147 26.1307 32.3583 26.5321 28.2605 27.5099C13.943 30.9262 11.9572 43.9544 12.2693 50.5481C17.6483 51.1731 19.7761 51.0729 20.019 49.9989Z" fill="#351700"/>
<path d="M20.1329 49.9523C20.3394 51.0651 18.7447 52.1121 16.571 52.2908C14.3974 52.4695 12.468 51.7123 12.2615 50.5996C12.0551 49.4868 13.6498 48.4398 15.8234 48.2611C17.9971 48.0824 19.9265 48.8395 20.1329 49.9523Z" fill="#451E00"/>
<path d="M20.0493 49.6752C21.1825 38.7387 30.7686 32.5934 35.53 31.4935C35.6405 30.1645 32.0806 30.8829 28.2333 32.4911C18.3428 36.6255 15.7394 42.4173 16.0516 49.0111C16.0671 49.0129 16.0826 49.0147 16.098 49.0165C16.163 50.1416 16.3068 51.629 16.571 52.2908C18.7447 52.1121 20.3394 51.0651 20.1329 49.9523C20.1155 49.8583 20.0873 49.7656 20.0493 49.6752Z" fill="#C5900F"/>
<path d="M24.4489 58.029C22.4301 46.6784 29.8409 37.6932 34.0245 35.2216C31.5775 30.2077 29.7689 31.1916 26.2115 33.3291C13.7826 40.7974 15.357 54.3132 17.3799 60.7792C22.5508 59.8706 24.5049 59.1657 24.4489 58.029Z" fill="#351700"/>
<path d="M24.5443 57.9495C25.0288 58.9969 23.8195 60.4913 21.8433 61.2872C19.8671 62.0831 17.8723 61.8791 17.3878 60.8317C16.9032 59.7842 18.1125 58.2899 20.0887 57.494C22.065 56.6981 24.0598 56.902 24.5443 57.9495Z" fill="#451E00"/>
<path d="M24.3939 57.6987C22.575 46.5044 29.8828 37.6692 34.0257 35.2216C33.7794 33.869 30.6552 35.5952 27.4967 38.2881C19.3769 45.2111 18.4754 51.709 20.4983 58.175C20.5131 58.1724 20.5279 58.1698 20.5426 58.1673C20.8987 59.2672 21.4235 60.7045 21.8433 61.2872C23.8195 60.4913 25.0288 58.9969 24.5443 57.9495C24.5035 57.8612 24.4529 57.7777 24.3939 57.6987Z" fill="#C5900F"/>
<path d="M9.00865 36.7612C8.96568 36.4307 9.89175 34.6938 10.3602 33.8666L17.2685 36.5002L23.1913 42.3761C23.0652 44.6332 22.3863 49.3216 20.6799 50.0184C18.9735 50.7153 17.141 50.4549 16.0872 50.1969C15.6619 49.6592 14.9414 45.1812 15.43 40.9657C13.0241 40.6862 9.06236 37.1743 9.00865 36.7612Z" fill="#220F01"/>
<path d="M14.5534 33.7426C16.4886 22.8799 26.836 17.6382 31.7813 16.9956C31.1143 11.6177 29.0055 11.82 24.7881 12.3984C10.053 14.4189 6.93701 27.0446 6.68871 33.558C12.0616 34.6756 14.2166 34.776 14.5534 33.7426Z" fill="#351700"/>
<path d="M14.673 33.7072C14.7862 34.8208 13.0881 35.7012 10.88 35.6737C8.67204 35.6462 6.79032 34.7212 6.67709 33.6076C6.56387 32.494 8.26203 31.6136 10.47 31.6411C12.678 31.6686 14.5598 32.5937 14.673 33.7072Z" fill="#451E00"/>
<path d="M14.6108 33.4258C16.6882 22.7776 26.8826 17.6314 31.7796 16.9951C32.0047 15.6985 28.3528 16.0718 24.3343 17.2935C14.0037 20.4341 10.8828 25.8861 10.6345 32.3994C10.6502 32.4027 10.6657 32.406 10.6813 32.4092C10.6507 33.5217 10.6687 34.9978 10.8787 35.6733C13.0867 35.7008 14.7848 34.8204 14.6716 33.7068C14.662 33.6125 14.6416 33.5186 14.6108 33.4258Z" fill="#C5900F"/>
<path d="M19.1859 37.5521C20.82 26.4906 30.9014 20.8243 35.767 20.0014C34.9717 14.5818 32.8952 14.8602 28.7465 15.5927C14.2517 18.1519 11.4968 31.039 11.4173 37.6397C16.7497 38.5833 18.8797 38.6097 19.1859 37.5521Z" fill="#351700"/>
<path d="M19.303 37.5121C19.4431 38.6351 17.7891 39.5855 15.6087 39.6347C13.4283 39.6839 11.5472 38.8133 11.4071 37.6903C11.267 36.5672 12.921 35.6169 15.1014 35.5676C17.2818 35.5184 19.1629 36.389 19.303 37.5121Z" fill="#451E00"/>
<path d="M19.2365 37.2282C21.0173 26.3798 30.9491 20.8163 35.767 20.0014C35.9561 18.6813 32.3608 19.1864 28.4249 20.5631C18.3066 24.1022 15.3644 29.7291 15.2849 36.3298C15.3007 36.3326 15.3165 36.3354 15.3322 36.3382C15.3303 37.4651 15.3856 38.9585 15.6101 39.6348C17.7905 39.5856 19.4445 38.6353 19.3044 37.5122C19.2924 37.4165 19.2696 37.3216 19.2365 37.2282Z" fill="#C5900F"/>
<path d="M24.3439 45.8307C23.0018 34.3802 30.9325 25.8513 35.2552 23.6327C33.1099 18.4823 31.2461 19.3569 27.5683 21.2792C14.7184 27.9954 15.4885 41.581 17.1243 48.1558C22.3399 47.5562 24.3325 46.9688 24.3439 45.8307Z" fill="#351700"/>
<path d="M24.4434 45.7571C24.8649 46.8315 23.5691 48.2513 21.5492 48.9284C19.5293 49.6054 17.5501 49.2832 17.1285 48.2088C16.707 47.1344 18.0028 45.7146 20.0227 45.0376C22.0426 44.3605 24.0218 44.6827 24.4434 45.7571Z" fill="#451E00"/>
<path d="M24.3071 45.4949C23.1571 34.2137 30.9749 25.8296 35.2552 23.6327C35.0896 22.2679 31.8686 23.8056 28.556 26.306C20.0399 32.7341 18.7546 39.1669 20.3905 45.7418C20.406 45.74 20.4215 45.7382 20.4369 45.7365C20.7271 46.8557 21.1647 48.3217 21.5492 48.9284C23.5691 48.2513 24.8649 46.8315 24.4434 45.7571C24.4074 45.6654 24.3623 45.5782 24.3071 45.4949Z" fill="#C5900F"/>
<path d="M12.4349 18.4401L13.646 17.2276V16.3182L19.2976 18.0359L27.5733 29.3525L22.2244 36.3244C18.5912 36.9711 15.5972 35.7181 14.5543 35.0109L17.0774 25.614C14.5543 25.0078 14.2515 22.4817 14.1506 22.0776C14.0699 21.7542 14.5879 20.5283 14.8571 19.9557C14.2919 19.7132 13.0068 18.8442 12.4349 18.4401Z" fill="#220F01"/>
<path d="M19.9472 19.2183C26.7215 10.5147 38.3164 10.7125 42.9897 12.4544C44.9062 7.38625 42.9468 6.58009 38.9471 5.12137C24.9728 0.0247974 16.3325 9.73608 13.0773 15.3809C17.3085 18.8794 19.1677 19.975 19.9472 19.2183Z" fill="#351700"/>
<path d="M20.0703 19.243C19.6514 20.2808 17.7392 20.2662 15.7991 19.2103C13.859 18.1545 12.6258 16.4573 13.0447 15.4195C13.4635 14.3817 15.3758 14.3963 17.3159 15.4521C19.256 16.508 20.4891 18.2052 20.0703 19.243Z" fill="#451E00"/>
<path d="M20.1464 18.9654C26.9466 10.5184 38.362 10.7295 42.9897 12.4544C43.7931 11.4128 40.3883 10.0367 36.2648 9.23991C25.664 7.19161 20.3627 10.5557 17.1075 16.2005C17.1199 16.2108 17.1322 16.221 17.1445 16.2312C16.599 17.2008 15.9271 18.5146 15.798 19.2101C17.7381 20.2659 19.6504 20.2805 20.0692 19.2427C20.1047 19.1547 20.1304 19.062 20.1464 18.9654Z" fill="#C5900F"/>
<path d="M22.2677 24.7525C28.8683 15.7324 40.4258 15.4306 45.1127 16.9757C46.9353 11.8108 44.9688 11.0869 40.9582 9.79665C26.9453 5.28875 18.5025 15.3999 15.3559 21.2008C19.6324 24.5265 21.5039 25.545 22.2677 24.7525Z" fill="#351700"/>
<path d="M22.3914 24.7722C21.9918 25.8309 20.086 25.8988 18.1346 24.9237C16.1832 23.9486 14.9252 22.2999 15.3247 21.2411C15.7242 20.1824 17.63 20.1145 19.5814 21.0896C21.5328 22.0647 22.7909 23.7134 22.3914 24.7722Z" fill="#451E00"/>
<path d="M22.4645 24.4912C29.0954 15.7268 40.4738 15.4457 45.115 16.9758C45.8976 15.8966 42.482 14.6638 38.3592 14.0427C27.7605 12.446 22.5358 16.0482 19.3891 21.8492C19.4016 21.8589 19.414 21.8685 19.4263 21.8781C18.8994 22.874 18.2523 24.2206 18.1357 24.9237C20.0871 25.8988 21.9929 25.8309 22.3924 24.7721C22.4263 24.6825 22.4502 24.5886 22.4645 24.4912Z" fill="#C5900F"/>
<path d="M21.9035 33.9187C26.0532 23.1641 37.0425 19.3256 41.8998 19.3828C42.4028 13.8252 40.3467 13.728 36.1979 13.7101C21.7024 13.6474 16.0519 26.023 14.4344 32.6024C19.3269 34.5086 21.363 34.9199 21.9035 33.9187Z" fill="#351700"/>
<path d="M22.0259 33.9003C21.898 35.0475 20.0902 35.6979 17.9881 35.3531C15.886 35.0082 14.2856 33.7987 14.4136 32.6515C14.5415 31.5043 16.3493 30.8538 18.4513 31.1987C20.5534 31.5435 22.1538 32.753 22.0259 33.9003Z" fill="#451E00"/>
<path d="M22.0257 33.6056C26.2659 23.0895 37.0886 19.3262 41.8984 19.3828C42.388 18.0983 38.8225 17.9533 34.7273 18.6173C24.1993 20.3243 20.0644 25.4135 18.447 31.9929C18.4613 31.9985 18.4756 32.0041 18.4898 32.0097C18.2249 33.1351 17.9292 34.6369 17.9865 35.3531C20.0886 35.6979 21.8964 35.0475 22.0243 33.9003C22.0352 33.8029 22.0355 33.7044 22.0257 33.6056Z" fill="#C5900F"/>
<path d="M92.2391 44.4111C89.7347 32.1495 77.7636 25.2253 72.0924 23.9831C72.7105 18.0865 75.1269 18.5367 79.9642 19.6298C96.8652 23.4488 100.767 37.7933 101.226 45.0478C95.1131 45.7131 92.6519 45.5939 92.2391 44.4111Z" fill="#351700"/>
<path d="M92.1008 44.3593C92.0013 45.583 93.9665 46.7417 96.4902 46.9475C99.0138 47.1532 101.14 46.328 101.24 45.1044C101.339 43.8808 99.3742 42.722 96.8506 42.5163C94.3269 42.3106 92.2004 43.1357 92.1008 44.3593Z" fill="#451E00"/>
<path d="M92.1633 44.053C89.5015 32.0147 77.7082 25.2132 72.0924 23.9831C71.8003 22.5201 75.9859 23.3254 80.613 25.1111C92.5085 29.7018 96.2231 36.086 96.682 43.3405C96.664 43.3425 96.646 43.3444 96.6282 43.3464C96.693 44.5842 96.7121 46.2203 96.4902 46.9475C93.9665 46.7417 92.0013 45.583 92.1008 44.3593C92.1093 44.2553 92.1303 44.153 92.1633 44.053Z" fill="#C5900F"/>
<path d="M83.812 50.229C86.5889 38.0264 78.5424 26.7707 73.8898 23.2945C76.885 18.1798 78.9 19.5889 82.8546 22.5845C96.6718 33.0505 94.3085 47.7279 91.734 54.5246C85.8924 52.6031 83.7001 51.477 83.812 50.229Z" fill="#351700"/>
<path d="M83.709 50.1247C83.1137 51.198 84.4255 53.0658 86.639 54.2966C88.8526 55.5274 91.1297 55.6552 91.725 54.5819C92.3204 53.5086 91.0086 51.6408 88.795 50.41C86.5815 49.1792 84.3044 49.0514 83.709 50.1247Z" fill="#451E00"/>
<path d="M83.8915 49.8726C86.4333 37.808 78.4982 26.7374 73.891 23.2951C74.2284 21.842 77.708 24.3057 81.1856 27.8451C90.1257 36.9444 90.8754 44.2946 88.3009 51.0913C88.2838 51.0857 88.2668 51.0801 88.2498 51.0746C87.7984 52.2287 87.1411 53.7262 86.639 54.2966C84.4255 53.0658 83.1137 51.198 83.709 50.1247C83.7595 50.0337 83.8205 49.9499 83.8915 49.8726Z" fill="#C5900F"/>
<path d="M75.1824 52.4781C78.1712 40.3258 70.3217 28.9315 65.7303 25.3747C68.814 20.3129 70.8042 21.757 74.7062 24.821C88.3391 35.5265 85.7208 50.1604 83.0285 56.9112C77.2212 54.8881 75.0488 53.724 75.1824 52.4781Z" fill="#351700"/>
<path d="M75.0802 52.3722C74.4663 53.4349 75.7454 55.3253 77.9372 56.5946C80.129 57.8638 82.4035 58.0312 83.0175 56.9685C83.6314 55.9058 82.3523 54.0154 80.1605 52.7461C77.9687 51.4769 75.6942 51.3095 75.0802 52.3722Z" fill="#451E00"/>
<path d="M75.2668 52.1228C78.0181 40.1044 70.2769 28.8967 65.7303 25.3747C66.0929 23.9276 69.529 26.452 72.9445 30.0516C81.7249 39.3054 82.3466 46.6675 79.6543 53.4183C79.6373 53.4124 79.6203 53.4065 79.6034 53.4007C79.1319 54.5467 78.4491 56.0329 77.9372 56.5946C75.7454 55.3253 74.4663 53.4349 75.0802 52.3722C75.1323 52.282 75.1943 52.1989 75.2668 52.1228Z" fill="#C5900F"/>
<path d="M67.5685 54.0924C72.5724 42.6235 66.7666 30.0616 62.8441 25.7767C66.7405 21.3119 68.4573 23.0729 71.7837 26.7551C83.406 39.6201 78.3468 53.5975 74.5501 59.7934C69.1696 56.8137 67.2258 55.2975 67.5685 54.0924Z" fill="#351700"/>
<path d="M67.4851 53.9703C66.7 54.9134 67.6404 56.9936 69.5854 58.6166C71.5305 60.2396 73.7437 60.7907 74.5288 59.8476C75.3139 58.9046 74.3735 56.8243 72.4284 55.2014C70.4833 53.5784 68.2701 53.0272 67.4851 53.9703Z" fill="#451E00"/>
<path d="M67.7128 53.7557C72.4596 42.3786 66.7282 30.0197 62.8441 25.7767C63.4466 24.4122 66.4061 27.4829 69.1624 31.6102C76.2482 42.2207 75.6139 49.5818 71.8172 55.7777C71.8013 55.769 71.7856 55.7602 71.7698 55.7516C71.111 56.801 70.1851 58.15 69.5854 58.6166C67.6404 56.9936 66.7 54.9134 67.4851 53.9703C67.5518 53.8901 67.6284 53.8185 67.7128 53.7557Z" fill="#C5900F"/>
<path d="M69.154 49.5611C69.4769 48.9145 69.6922 47.675 69.7595 47.1361C75.7139 40.1643 88.2485 23.1489 89.5403 23.7956C90.8321 24.4423 94.6537 28.2077 95.5956 29.2518L90.7513 32.3841C91.3569 34.506 91.155 38.1434 89.5403 38.9518C88.2485 39.5984 85.2342 39.6927 83.8886 39.6591L83.384 42.8924C83.2158 43.4313 82.5363 44.5899 81.1637 44.9132C79.7912 45.2366 77.4969 44.7785 76.5213 44.5091C76.602 45.3174 75.8148 47.675 75.4111 48.7528C73.5542 49.642 70.466 49.6622 69.154 49.5611Z" fill="#220F01"/>
<path d="M87.6314 27.5448C81.9305 16.4067 68.542 12.9551 62.7459 13.283C61.7598 7.43681 64.2082 7.2209 69.161 6.97341C86.4656 6.10871 94.0713 18.8774 96.4589 25.7422C90.7491 28.0263 88.3463 28.5732 87.6314 27.5448Z" fill="#351700"/>
<path d="M87.4836 27.5318C87.7159 28.7373 89.9197 29.3252 92.4059 28.8449C94.892 28.3647 96.7192 26.9981 96.4869 25.7927C96.2545 24.5872 94.0508 23.9993 91.5646 24.4796C89.0784 24.9598 87.2513 26.3264 87.4836 27.5318Z" fill="#451E00"/>
<path d="M87.4602 27.2229C81.6681 16.3407 68.4828 12.959 62.7431 13.2837C62.0693 11.9531 66.3168 11.6035 71.2529 12.0797C83.9427 13.304 89.2331 18.455 91.6208 25.3198C91.6044 25.3264 91.588 25.3329 91.5717 25.3395C91.9662 26.5143 92.4234 28.0854 92.4046 28.8455C89.9184 29.3257 87.7147 28.7379 87.4824 27.5324C87.4628 27.4307 87.4555 27.3273 87.4602 27.2229Z" fill="#C5900F"/>
<path d="M81.0754 35.4146C80.4776 22.9136 69.7078 14.2344 64.2938 12.1367C65.8072 6.40456 68.1261 7.22023 72.739 9.04262C88.8557 15.4098 90.5156 30.1835 89.8585 37.4227C83.7161 37.1422 81.3023 36.6468 81.0754 35.4146Z" fill="#351700"/>
<path d="M80.9478 35.342C80.6622 36.5359 82.4267 37.9825 84.8891 38.5731C87.3515 39.1636 89.5792 38.6745 89.8649 37.4806C90.1505 36.2867 88.3859 34.8401 85.9236 34.2496C83.4612 33.659 81.2335 34.1481 80.9478 35.342Z" fill="#451E00"/>
<path d="M81.0547 35.0509C80.2679 22.7456 69.6551 14.214 64.2938 12.1367C64.229 10.6462 68.2413 12.0845 72.5404 14.5591C83.5926 20.9208 86.2861 27.7995 85.629 35.0387C85.6112 35.0379 85.5935 35.0371 85.5758 35.0363C85.4504 36.2694 85.2189 37.8891 84.8882 38.5736C82.4259 37.983 80.6613 36.5364 80.9469 35.3425C80.9711 35.2416 81.0073 35.1442 81.0547 35.0509Z" fill="#C5900F"/>
<path d="M73.3651 39.901C72.9849 27.3915 62.3678 18.5258 56.9911 16.3339C58.604 10.6291 60.9084 11.4851 65.4888 13.3876C81.4923 20.035 82.8949 34.8353 82.112 42.062C75.9754 41.6744 73.5705 41.137 73.3651 39.901Z" fill="#351700"/>
<path d="M73.2388 39.8262C72.9325 41.0149 74.6716 42.4921 77.1233 43.1255C79.575 43.7589 81.8109 43.3087 82.1173 42.1199C82.4237 40.9312 80.6846 39.4541 78.2328 38.8207C75.7811 38.1873 73.5452 38.6375 73.2388 39.8262Z" fill="#451E00"/>
<path d="M73.3511 39.5366C72.7786 27.2194 62.3154 18.5044 56.9911 16.3339C56.9523 14.8425 60.9392 16.35 65.1946 18.8992C76.1344 25.4527 78.7078 32.3774 77.9249 39.604C77.9072 39.6029 77.8895 39.6018 77.8719 39.6007C77.725 40.8314 77.4658 42.4469 77.1233 43.1255C74.6716 42.4921 72.9325 41.0149 73.2388 39.8262C73.2647 39.7258 73.3021 39.629 73.3511 39.5366Z" fill="#C5900F"/>
<path d="M66.4649 43.5024C68.2091 31.1095 59.2474 20.5696 54.3198 17.4966C56.8757 12.1483 59.0017 13.3831 63.1935 16.0358C77.8393 25.3039 76.7147 40.128 74.7191 47.1171C68.737 45.6933 66.458 44.7553 66.4649 43.5024Z" fill="#351700"/>
<path d="M66.352 43.4068C65.8487 44.5263 67.3125 46.2774 69.6214 47.3178C71.9303 48.3583 74.2101 48.2943 74.7134 47.1747C75.2167 46.0552 73.7529 44.3042 71.444 43.2637C69.1351 42.2233 66.8553 42.2873 66.352 43.4068Z" fill="#451E00"/>
<path d="M66.5132 43.14C68.0341 30.9048 59.1992 20.5395 54.3198 17.4966C54.5342 16.0203 58.2082 18.1838 61.9701 21.4186C71.6415 29.7345 73.0047 36.9957 71.0091 43.9848C70.9914 43.9806 70.9738 43.9765 70.9563 43.9723C70.6032 45.1603 70.0736 46.7082 69.6211 47.3189C67.3122 46.2784 65.8484 44.5274 66.3517 43.4079C66.3945 43.3126 66.4486 43.2232 66.5132 43.14Z" fill="#C5900F"/>
<path d="M80.9622 9.54873C80.397 9.2254 78.5064 8.67304 77.6318 8.43727L65.0165 29.9591C66.0661 31.2524 66.5976 35.4153 66.7322 37.3351C69.7598 37.032 72.8884 35.1122 73.393 34.1018C73.7967 33.2935 71.0718 27.6015 69.6589 25.5133C73.9986 25.9174 76.1179 23.3914 76.6225 22.1789C77.0262 21.2089 75.8824 19.2824 75.0078 17.8341C80.2557 15.975 81.164 11.5359 80.9622 9.54873Z" fill="#220F01"/>
<path d="M71.6442 15.391C61.9946 7.43493 48.3379 9.58945 43.1483 12.1946C39.9247 7.22103 42.0862 6.04953 46.5337 3.85346C62.0727 -3.81936 74.1172 4.87612 79.0311 10.2273C74.6965 14.5936 72.7082 16.0507 71.6442 15.391Z" fill="#351700"/>
<path d="M71.5035 15.4375C72.1948 16.4515 74.4505 16.115 76.5418 14.6858C78.6331 13.2567 79.7681 11.2762 79.0768 10.2622C78.3855 9.24819 76.1298 9.58472 74.0384 11.0138C71.9471 12.443 70.8122 14.4235 71.5035 15.4375Z" fill="#451E00"/>
<path d="M71.3601 15.1626C61.7282 7.47714 48.2853 9.61508 43.1461 12.195C42 11.2415 45.7596 9.23215 50.4788 7.70693C62.611 3.78588 69.5094 6.41037 74.4233 11.7616C74.4109 11.7741 74.3985 11.7866 74.3861 11.7991C75.2142 12.7206 76.2575 13.9806 76.5418 14.6858C74.4505 16.115 72.1948 16.4515 71.5035 15.4375C71.4451 15.3519 71.3972 15.2603 71.3601 15.1626Z" fill="#C5900F"/>
<path d="M68.1088 23.4305C59.3773 14.4743 45.5678 15.1343 40.1268 17.1611C37.4606 11.867 39.7362 10.9369 44.3952 9.23637C60.6732 3.2948 71.7054 13.2459 76.0112 19.0988C71.2295 22.969 69.0952 24.2018 68.1088 23.4305Z" fill="#351700"/>
<path d="M67.9646 23.4612C68.542 24.5442 70.8209 24.4545 73.0546 23.2607C75.2883 22.0669 76.631 20.2212 76.0535 19.1381C75.4761 18.0551 73.1972 18.1449 70.9635 19.3387C68.7298 20.5325 67.3871 22.3782 67.9646 23.4612Z" fill="#451E00"/>
<path d="M67.8528 23.1715C59.1096 14.4872 45.5148 15.1541 40.1268 17.1611C39.0907 16.0889 43.0461 14.4992 47.9026 13.495C60.3877 10.9134 66.9614 14.271 71.2671 20.1238C71.2532 20.135 71.2394 20.1462 71.2257 20.1574C71.9491 21.1633 72.8484 22.5289 73.0546 23.2607C70.8209 24.4545 68.542 24.5442 67.9646 23.4612C67.9157 23.3696 67.8791 23.2729 67.8528 23.1715Z" fill="#C5900F"/>
<path d="M64.7137 33.2938C58.7391 22.3005 45.2693 19.1817 39.4831 19.6533C38.3528 13.8333 40.7951 13.5567 45.7403 13.1866C63.0182 11.8932 70.9372 24.4695 73.4939 31.273C67.8423 33.698 65.4538 34.3042 64.7137 33.2938Z" fill="#351700"/>
<path d="M64.566 33.2842C64.828 34.4836 67.0456 35.0166 69.5192 34.4749C71.9927 33.9332 73.7855 32.5218 73.5235 31.3225C73.2614 30.1231 71.0438 29.5901 68.5702 30.1318C66.0967 30.6735 64.3039 32.0849 64.566 33.2842Z" fill="#451E00"/>
<path d="M64.536 32.9756C58.4766 22.2404 45.2118 19.1865 39.4818 19.6534C38.7754 18.3398 43.0129 17.8851 47.9593 18.2388C60.6755 19.1482 66.0917 24.1666 68.6484 30.97C68.6321 30.977 68.6159 30.984 68.5998 30.9909C69.0231 32.1557 69.5192 33.7146 69.5192 34.4749C67.0456 35.0166 64.828 34.4836 64.566 33.2842C64.5439 33.1831 64.534 33.08 64.536 32.9756Z" fill="#C5900F"/>
<path d="M27.5313 59.7041C26.9234 60.0538 22.6729 54.7039 19.8429 56.3314C18.8875 56.8808 18.1586 57.8179 17.6113 58.8307C16.4086 61.0582 15.997 63.7644 16.4815 66.261C17.1672 69.7911 19.5436 72.6809 22.3388 74.5964C29.8606 79.7495 35.8276 78.7755 43.8556 75.7925C50.1748 73.4449 58.7845 68.6121 57.0008 59.8932C53.8611 44.5449 27.5392 59.6996 27.5313 59.7041Z" fill="#873C41"/>
<path d="M49.3073 58.7228C47.2631 59.9946 44.7742 60.1258 42.5419 59.6185C42.115 59.5211 41.7719 59.8804 41.6655 60.2934C40.5756 64.5378 34.3958 66.7533 31.2965 64.0317C31.056 63.8204 30.6293 63.7704 30.3774 64.0099C28.7048 65.6005 26.0249 66.0319 24.0567 64.9559C21.2776 63.4363 21.2912 59.1669 22.0482 56.1937C24.4976 56.9435 27.069 59.9697 27.531 59.703C27.5372 59.6992 43.6956 50.3991 52.2027 53.7542C52.0222 55.8154 51.078 57.6209 49.3073 58.7228Z" fill="white"/>
<path d="M26.131 75.233C30.551 71.1678 35.9854 68.8971 41.4956 67.2859C46.2089 65.9076 51.5155 65.0144 56.2861 66.3821C54.0754 71.1377 48.387 74.1087 43.8556 75.7925C36.833 78.4017 31.3874 79.4728 25.0996 76.2516C25.4421 75.9111 25.7761 75.5596 26.131 75.233Z" fill="#EE7E8B"/>
<path d="M40.0421 46.3319C40.0467 48.7319 41.2977 50.6797 43.8952 50.2805C45.7651 49.7787 47.0097 48.4578 47.0048 45.941C46.9997 43.3039 45.4673 41.5926 43.8784 41.5896C41.7545 41.5855 40.0374 43.932 40.0421 46.3319Z" fill="#2A1200"/>
<path d="M22.3348 46.2886C22.3379 47.8973 23.0645 49.6249 24.9238 49.4263C26.4841 49.2596 26.8825 47.2068 26.8805 46.1962C26.8771 44.4286 25.9933 42.7586 24.7042 42.7561C23.3177 42.7535 22.3317 44.6799 22.3348 46.2886Z" fill="#2A1200"/>
<path d="M38.8788 34.9592C41.3834 33.716 44.5119 33.8316 47.0235 35.2491C47.8334 35.7062 48.3562 36.7986 47.9411 37.7249C47.558 38.5816 46.5475 39.1192 45.6804 38.6291C45.4205 38.4821 45.1553 38.3487 44.8821 38.2335C44.7971 38.1976 44.5786 38.1547 44.4937 38.0892C44.4542 38.0775 44.4153 38.0657 44.3752 38.055C44.1279 37.9882 43.8782 37.9343 43.6269 37.8931C43.4828 37.8696 43.3391 37.851 43.1946 37.8358C43.1491 37.8312 43.1037 37.8275 43.0577 37.8239C42.9396 37.8389 42.7923 37.8178 42.6814 37.8214C42.5369 37.826 42.3934 37.8352 42.2493 37.8487C41.9981 37.8723 41.7483 37.9088 41.5014 37.9585C41.4668 37.9655 41.433 37.9731 41.3985 37.9808C41.2695 38.0213 41.1399 38.0587 41.0119 38.1039C40.7401 38.2003 40.4754 38.3157 40.216 38.4438C39.4067 38.8459 38.265 38.2778 37.9561 37.3624C37.6173 36.3542 38.0118 35.3899 38.8788 34.9592Z" fill="#351700"/>
<path d="M21.4229 35.8331C22.9204 35.0184 24.6384 34.8352 26.1847 35.2828C26.602 35.4036 26.9829 35.7681 27.1615 36.171C27.3376 36.568 27.3735 37.1364 27.1999 37.5681C27.0195 38.0162 26.7115 38.4424 26.2774 38.655C25.8373 38.8707 25.3874 38.9262 24.934 38.7956C24.8598 38.774 24.7837 38.7615 24.7081 38.7437C24.4729 38.717 24.2365 38.7099 23.9979 38.72C23.7112 38.7635 23.4288 38.8334 23.1501 38.9296C23.053 38.9743 22.9536 39.0141 22.8586 39.0655C22.4484 39.2883 21.9352 39.3415 21.5152 39.2061C21.1131 39.0765 20.7007 38.7299 20.5388 38.3171C20.3708 37.8898 20.3147 37.3818 20.5004 36.9201C20.6852 36.4598 20.989 36.0691 21.4229 35.8331Z" fill="#351700"/>
<path fill-rule="evenodd" clip-rule="evenodd" d="M11.3307 44.2293L21.2238 43.8731L21.3246 41.7512L11.2857 42.209L11.3307 44.2293Z" fill="#896307"/>
<path fill-rule="evenodd" clip-rule="evenodd" d="M46.6205 31.5927C52.1067 32.4587 55.9172 38.0914 54.9378 44.3224C53.9585 50.5534 48.6049 54.7394 43.1187 53.8733C37.6325 53.0073 33.8221 47.3747 34.8014 41.1437C35.7807 34.9127 41.1344 30.7267 46.6205 31.5927ZM57.0854 42.1366C56.9806 35.9433 52.8712 30.5337 46.9343 29.5965C40.2098 28.535 33.9565 33.6555 32.8286 40.8323C32.8284 40.8337 32.8281 40.8351 32.8279 40.8366C32.6204 40.7528 32.394 40.6722 32.1526 40.6019C31.4187 40.388 30.4946 40.2569 29.5325 40.4582C29.4096 37.9324 28.6767 35.6132 27.4841 33.7817C26.0016 31.505 23.7692 29.9373 21.1149 29.7981C18.4647 29.6591 16.0432 30.9784 14.2655 33.0728C12.4872 35.1678 11.302 38.0857 11.0768 41.3268C10.8515 44.5677 11.6237 47.595 13.105 49.8698C14.5875 52.1465 16.8199 53.7143 19.4742 53.8534C22.1244 53.9924 24.5459 52.6731 26.3236 50.5788C28.0563 48.5374 29.2261 45.7146 29.4932 42.5729C30.1846 42.2894 30.9177 42.3462 31.5943 42.5434C32.0158 42.6662 32.3841 42.8364 32.6522 42.9804C32.6052 49.3184 36.7567 54.9148 42.805 55.8696C49.5294 56.9311 55.7827 51.8105 56.9107 44.6338C56.9334 44.489 56.9539 44.3443 56.9722 44.1999L74.4025 41.3861C77.6724 40.9328 80.9363 41.0832 83.3467 41.8942C85.7646 42.7077 87.0407 45.7005 87.079 47.559L89.0762 47.5108C89.0124 44.4209 86.7733 40.916 83.9823 39.9769C81.1865 39.0362 77.5876 38.9047 74.1256 39.386L74.1149 39.3875L57.0854 42.1366ZM25.8148 34.8964C27.0319 36.7656 27.7173 39.3443 27.5196 42.189C27.322 45.0334 26.2839 47.5283 24.8095 49.2654C23.3345 51.0031 21.4738 51.9349 19.5835 51.8358C17.6971 51.7369 15.9902 50.6225 14.7743 48.7551C13.5572 46.8859 12.8718 44.3072 13.0695 41.4626C13.2671 38.6181 14.3052 36.1232 15.7796 34.3862C17.2546 32.6485 19.1152 31.7166 21.0056 31.8158C22.8919 31.9147 24.5988 33.0291 25.8148 34.8964Z" fill="#C5900F"/>
</svg>
