<svg width="87" height="93" viewBox="0 0 87 93" fill="none" xmlns="http://www.w3.org/2000/svg">
<path d="M53.7865 6.10378C53.7865 6.10378 80.1083 10.2303 78.1123 47.8108C78.105 47.9501 81.1557 49.9795 81.3946 50.1963C83.5219 52.1239 85.3066 54.5928 86.0871 57.4807C88.8662 67.7645 78.9303 78.3608 70.8954 81.1733C67.8943 82.2237 64.722 82.7337 61.5435 82.8264C40.881 83.4292 13.5248 70.2708 12.1198 44.5729C12.0695 43.6509 12.057 42.7279 12.0807 41.807C12.2053 36.9276 13.3806 32.1756 15.152 27.7633C15.1512 27.7634 26.6508 -0.816133 53.7865 6.10378Z" fill="#A47539"/>
<path d="M78.7786 48.2078C78.4935 48.9077 78.2088 49.802 78.1293 50.3135C77.7897 52.5072 78.5387 54.7724 79.84 56.4007C81.0755 57.9469 82.8402 58.9495 84.5492 59.3276C85.1261 59.4553 85.8247 59.5208 86.4357 59.5412C85.7939 53.1884 80.6315 49.3769 78.7786 48.2078Z" fill="#FEB3A4"/>
<path d="M41.675 64.9045C46.5645 63.8503 49.6005 58.6888 48.456 53.3758C47.3115 48.0629 42.42 44.6105 37.5306 45.6646C32.6411 46.7188 29.6051 51.8804 30.7496 57.1933C31.894 62.5062 36.7855 65.9587 41.675 64.9045Z" fill="#FEB3A4"/>
<path d="M65.6116 50.0435C65.6116 50.0435 69.7871 46.063 73.0196 49.8054Z" fill="#633B1D"/>
<path d="M26.6795 69.8775C12.779 76.8577 0.164256 59.3558 4.20574 49.5172C6.78378 43.2414 14.2996 42.7532 18.6545 48.4854C21.2245 51.8684 23.304 56.1928 24.4846 60.3296" fill="#A47539"/>
<path d="M15.231 54.2592C17.0194 56.0823 18.4568 58.7864 20.2238 60.2947C19.8973 57.7707 19.3762 55.0755 18.1527 52.8011C16.9104 50.491 14.6511 48.5881 12.3505 48.745C9.49942 48.9397 7.15177 52.2667 6.8498 55.283C7.03032 53.478 10.6544 52.2562 12.0377 52.4272C14.2036 56.5175 15.0418 64.5794 15.0418 64.5794C16.8465 60.0154 16.1162 56.4257 15.231 54.2592Z" fill="#633B1D"/>
<path d="M63.1035 17.4355C56.592 26.4621 41.8659 45.0168 21.63 51.6364C20.2609 49.2961 17.8232 46.8422 13.4154 46.9225C7.90566 47.0228 5.90211 51.0346 5.90211 51.0346C5.90211 51.0346 -0.509253 61.7663 14.317 68.5864C18.4243 69.3887 19.7266 69.3888 23.0325 67.9846C25.2698 69.7231 32.369 75.6472 34.8534 76.61C34.2189 79.9867 33.0988 88.4049 34.6215 92.2562C31.7163 92.5237 24.6354 94.0014 19.0254 90.9524C18.4606 87.5177 17.9638 83.0199 18.848 81.3049C17.7923 83.032 15.8882 86.9744 15.8882 89.2474C12.6826 88.1441 5.54995 85.075 2.66483 81.6249C-1.80977 60.5627 -3.41444 9.51208 41.8659 5.19935C45.8396 4.7313 55.9709 5.13917 62.7028 9.71266C71.1177 15.4295 75.3252 23.052 76.9281 30.6745C73.4886 29.0698 65.9085 24.1754 63.1035 17.4355Z" fill="#E2BA87"/>
<path d="M79.6328 89.2474C78.2704 87.3217 79.0652 78.5825 79.6329 75.6071C74.0228 80.321 70.717 82.6278 59.1965 82.9287C61.2001 85.9376 69.014 87.0408 69.9156 87.442L71.5184 86.3388V87.9435C73.6823 88.6656 77.8296 89.1136 79.6328 89.2474Z" fill="#E2BA87"/>
<path d="M62.202 9.51204C55.4701 4.93854 45.8396 4.7313 41.8659 5.19935C42.9632 11.1502 46.3482 23.8142 55.6903 26.8632C58.4295 23.3091 61.6993 20.0012 63.1035 17.4355C65.9085 24.1754 73.4886 29.0698 76.9281 30.6745C75.3252 23.052 70.6169 15.2289 62.202 9.51204Z" fill="#E2BA87"/>
<path d="M60.6856 16.3951C60.6856 16.3951 59.0274 14.4275 55.4103 14.7562C55.4103 14.7562 57.9726 13.3631 59.6301 13.527C59.6301 13.527 55.109 10.1664 48.4775 12.2978C48.4775 12.2978 53.1493 9.01917 56.8426 9.42889C56.8426 9.42889 52.9241 7.70805 50.4372 8.11777C50.4372 8.11777 52.3968 5.65855 54.9583 5.74049C54.9583 5.74049 52.9233 2.13404 49.7583 0.986816C49.7583 0.986816 56.0884 2.79048 57.7458 4.1016C61.4382 5.65855 64.8293 10.2492 64.8293 10.2492C63.6992 9.59366 61.8903 9.75755 61.8903 9.75755C64.8293 11.5612 67.0902 14.921 67.0902 14.921C65.6588 13.9376 63.9252 14.2654 63.9252 14.2654C66.7135 17.0524 67.6176 20.6588 67.6176 20.6588C67.2409 19.5116 64.5279 18.1177 64.5279 18.1177C65.5827 20.0033 65.8087 23.0352 65.8087 23.0352L63.5477 20.0844C63.5477 20.0844 58.9512 23.9366 57.745 24.4283C57.745 24.4283 61.2114 20.8219 61.4374 19.183C61.4374 19.183 56.2374 20.576 52.093 21.1505C52.0946 21.1488 57.8973 16.7229 60.6856 16.3951Z" fill="#D9AC74"/>
<path d="M49.0776 26.2614C46.2726 29.8052 37.1364 38.4173 23.0314 44.5152C27.506 41.707 38.9797 34.1246 49.0776 26.2614Z" fill="#D9AC74"/>
<path d="M11.8115 44.5152C19.986 27.1841 36.5888 17.3685 43.8683 14.6271C25.1151 17.8365 12.6129 36.3578 8.70601 45.2173C9.42729 44.8964 11.0769 44.6155 11.8115 44.5152Z" fill="#D9AC74"/>
<path d="M7.60406 65.4771C8.00477 65.9786 9.16683 66.7609 9.80797 67.0818C9.54957 71.4798 9.15786 80.015 9.35875 83.8008C9.41181 84.3355 9.46211 84.8188 9.50743 85.2354C9.44001 84.9092 9.3915 84.4181 9.35875 83.8008C8.98173 80.0019 8.46532 73.6076 8.60583 70.0907C7.87119 72.7653 6.62231 73.6612 7.50388 84.7339C6.5689 77.5795 5.11968 69.8099 7.60406 65.4771Z" fill="#D9AC74"/>
<path d="M74.6229 79.5185C75.1839 79.2778 76.1255 78.6159 76.5262 78.315C75.805 79.5185 76.0921 85.5697 76.3259 88.4449C75.845 88.0437 75.5245 86.5392 75.4243 85.8372C75.1037 86.8802 74.4893 86.9404 74.6229 88.4449C73.7413 86.4389 74.5227 82.728 74.6229 79.5185Z" fill="#D9AC74"/>
<path d="M29.543 77.9138C28.5813 86.6596 29.0421 89.0466 29.8435 92.7576H25.8364C24.3938 85.6968 28.0737 82.3268 29.543 77.9138Z" fill="#D9AC74"/>
<path d="M70.1091 59.6817C71.981 59.7337 73.776 59.197 75.3219 57.5867C76.1308 56.7449 76.9511 56.2814 78.1117 57.0016C80.8904 58.7263 81.5446 63.0349 80.7976 65.9237C79.9776 69.0938 77.5073 71.6494 74.6605 73.3162C66.9999 77.8014 61.1241 76.7921 53.2851 73.9249C47.1148 71.6688 38.7728 67.1206 40.8874 59.2931C43.5059 49.6016 54.7913 54.2548 61.1589 56.8692C63.8626 57.9803 67.0862 59.5976 70.1091 59.6817Z" fill="white"/>
<path d="M70.1091 59.6817C71.981 59.7337 73.776 59.197 75.3219 57.5867C76.1308 56.7449 76.9511 56.2814 78.1117 57.0016C80.8904 58.7263 81.5446 63.0349 80.7976 65.9237C79.9776 69.0938 77.5073 71.6494 74.6605 73.3162C66.9999 77.8014 61.1241 76.7921 53.2851 73.9249C47.1148 71.6688 38.7728 67.1206 40.8874 59.2931C43.5059 49.6016 54.7913 54.2548 61.1589 56.8692C63.8626 57.9803 67.0862 59.5976 70.1091 59.6817Z" fill="white"/>
<path fill-rule="evenodd" clip-rule="evenodd" d="M44.5518 70.4465L52.5712 50.1605L53.6875 50.6038L45.6681 70.8899L44.5518 70.4465ZM61.0299 77.0011L66.569 55.7149L67.7309 56.0187L62.1918 77.3049L61.0299 77.0011ZM77.516 71.8616L74.4595 56.2556L75.6378 56.0238L78.6942 71.6298L77.516 71.8616Z" fill="#D1D3D4"/>
<path d="M59.1013 43.7168C59.0967 46.099 57.855 48.0325 55.2766 47.6362C53.4206 47.1382 52.1851 45.8269 52.19 43.3287C52.195 40.7111 53.7161 39.0125 55.2933 39.0095C57.4015 39.0054 59.106 41.3346 59.1013 43.7168Z" fill="#2A1200"/>
<path d="M72.3506 42.2149C73.4827 42.2817 75.0415 42.163 76.088 41.4358C76.4628 42.0956 76.6802 42.9199 76.6788 43.6738C76.6757 45.2706 75.9545 46.9855 74.1089 46.7884C72.56 46.623 72.1646 44.5852 72.1666 43.5821C72.1675 43.1092 72.2319 42.6433 72.3506 42.2149Z" fill="#71472D"/>
<path d="M59.467 31.209C56.7152 30.8554 53.817 31.9793 51.9183 34.1246C51.306 34.8163 51.1684 36.011 51.8571 36.7454C52.4933 37.4249 53.6151 37.6015 54.2704 36.8601C54.4668 36.6379 54.6726 36.4266 54.8917 36.2299C54.9598 36.1686 55.1511 36.0574 55.2095 35.9684C55.2428 35.9446 55.2755 35.9209 55.3097 35.8979C55.5201 35.7549 55.737 35.6233 55.9595 35.503C56.0871 35.4342 56.216 35.3701 56.3466 35.309C56.3879 35.2899 56.4292 35.2717 56.4713 35.2533C56.5869 35.2291 56.7183 35.1615 56.8235 35.1289C56.9606 35.0863 57.0982 35.0484 57.2378 35.0143C57.4811 34.9549 57.7273 34.908 57.975 34.8746C58.0098 34.8699 58.0439 34.866 58.0788 34.8621C58.2129 34.8582 58.3467 34.8512 58.4813 34.8521C58.7675 34.8544 59.0531 34.8767 59.338 34.9127C60.2272 35.0274 61.115 34.1238 61.1091 33.1645C61.1013 32.1086 60.4196 31.3317 59.467 31.209Z" fill="#71472D"/>
<path d="M76.976 38.8215C75.4895 39.6303 73.7842 39.8121 72.2493 39.3678C71.8351 39.2479 71.457 38.8861 71.2797 38.4861C71.1049 38.0921 71.0693 37.5279 71.2416 37.0994C71.4206 36.6546 71.7264 36.2316 72.1573 36.0205C72.5942 35.8064 73.0408 35.7513 73.4908 35.8809C73.5645 35.9024 73.64 35.9148 73.715 35.9324C73.9485 35.959 74.1831 35.966 74.42 35.956C74.7046 35.9128 74.9849 35.8434 75.2616 35.748C75.3579 35.7036 75.4565 35.6641 75.5509 35.613C75.958 35.3919 76.4674 35.3391 76.8843 35.4735C77.2834 35.6021 77.6928 35.9462 77.8535 36.3559C78.0203 36.7801 78.076 37.2843 77.8917 37.7426C77.7082 38.1995 77.4067 38.5874 76.976 38.8215Z" fill="#71472D"/>
</svg>
