<svg width="87" height="91" viewBox="0 0 87 91" fill="none" xmlns="http://www.w3.org/2000/svg">
<path d="M35.5268 13.7508C35.5268 13.7508 9.09765 17.8868 11.1018 55.5533C11.1091 55.693 8.04598 57.727 7.80605 57.9443C5.67015 59.8764 3.8781 62.3508 3.09447 65.2453C0.304055 75.5528 10.2805 86.1732 18.3481 88.9922C21.3615 90.045 24.5467 90.5562 27.7382 90.6491C48.485 91.2533 75.9528 78.0647 77.3636 52.308C77.4141 51.3839 77.4266 50.4588 77.4028 49.5358C77.2777 44.6452 76.0976 39.8823 74.319 35.4599C74.3198 35.4601 62.7732 6.81505 35.5268 13.7508Z" fill="#FFE4C0"/>
<path d="M10.4333 55.9493C10.7193 56.6507 11.0047 57.547 11.0844 58.0597C11.4245 60.2586 10.672 62.5294 9.36537 64.1621C8.1248 65.7124 6.3532 66.718 4.63784 67.0975C4.05874 67.2257 3.35756 67.2916 2.7443 67.3123C3.39054 60.944 8.5733 57.1218 10.4333 55.9493Z" fill="#FEB3A4"/>
<path d="M47.6849 72.6886C42.777 71.6334 39.7311 66.46 40.8818 61.1335C42.0324 55.807 46.9439 52.3443 51.8518 53.3995C56.7597 54.4546 59.8056 59.628 58.6549 64.9545C57.5043 70.2811 52.5928 73.7437 47.6849 72.6886Z" fill="#FEB3A4"/>
<path d="M23.6533 57.7909C23.6533 57.7909 19.4608 53.8013 16.2151 57.5523Z" fill="#633B1D"/>
<path d="M62.745 77.6755C76.6944 84.6684 89.3628 67.1208 85.3101 57.2597C82.7249 50.9696 75.1813 50.4824 70.8081 56.2296C68.2272 59.6215 66.1383 63.9569 64.9517 68.104" fill="#FFE4C0"/>
<path d="M74.2411 62.0167C72.4453 63.8447 71.0014 66.5557 69.2272 68.0682C69.5559 65.538 70.08 62.8361 71.309 60.5558C72.5568 58.2398 74.8254 56.3317 77.1345 56.4883C79.9962 56.6826 82.3514 60.017 82.6533 63.0405C82.4728 61.2312 78.8356 60.0075 77.447 60.1793C75.2715 64.2801 74.427 72.3618 74.427 72.3618C72.6173 67.7872 73.3518 64.1887 74.2411 62.0167Z" fill="#633B1D"/>
<path d="M19.0767 67.4508C17.197 67.5029 15.3946 66.9651 13.8423 65.3515C13.0301 64.508 12.2065 64.0437 11.0411 64.7653C8.25093 66.4934 7.59403 70.8107 8.34404 73.7054C9.16742 76.8818 11.6479 79.4426 14.5065 81.1128C22.1987 85.607 28.0987 84.5956 35.9701 81.7226C42.1658 79.462 50.5423 74.9046 48.4189 67.0614C45.7896 57.3504 34.4576 62.0129 28.0638 64.6326C25.3489 65.7459 22.112 67.3665 19.0767 67.4508Z" fill="white"/>
<path d="M19.0767 67.4508C17.197 67.5029 15.3946 66.9651 13.8423 65.3515C13.0301 64.508 12.2065 64.0437 11.0411 64.7653C8.25093 66.4934 7.59403 70.8107 8.34404 73.7054C9.16742 76.8818 11.6479 79.4426 14.5065 81.1128C22.1987 85.607 28.0987 84.5956 35.9701 81.7226C42.1658 79.462 50.5423 74.9046 48.4189 67.0614C45.7896 57.3504 34.4576 62.0129 28.0638 64.6326C25.3489 65.7459 22.112 67.3665 19.0767 67.4508Z" fill="white"/>
<path fill-rule="evenodd" clip-rule="evenodd" d="M44.7395 78.2375L36.687 57.9105L35.5661 58.3548L43.6186 78.6818L44.7395 78.2375ZM28.1934 84.8053L22.6315 63.4762L21.4648 63.7806L27.0267 85.1097L28.1934 84.8053ZM11.6394 79.6554L14.7084 64.018L13.5253 63.7857L10.4562 79.4231L11.6394 79.6554Z" fill="#D1D3D4"/>
<path d="M28.5169 52.7908C31.2109 51.0211 34.2885 51.1815 36.0613 51.6287C36.2624 51.6795 36.4232 51.4253 36.2782 51.277C32.4579 47.3703 29.5252 50.1159 28.2196 52.5437C28.1214 52.7264 28.3434 52.9047 28.5169 52.7908Z" fill="#2A1200"/>
<path d="M12.3027 51.4239C12.3058 53.024 13.03 54.7423 14.8832 54.5448C16.4384 54.379 16.8355 52.3372 16.8335 51.332C16.8301 49.5739 15.9493 47.9129 14.6644 47.9105C13.2824 47.9079 12.2996 49.8239 12.3027 51.4239Z" fill="#2A1200"/>
<path d="M29.4873 39.0447C32.2369 38.5975 35.1834 39.625 37.1613 41.7091C37.799 42.3811 37.9775 43.5729 37.3111 44.3317C36.6955 45.0337 35.5757 45.2484 34.8931 44.5282C34.6885 44.3123 34.4748 44.1077 34.2483 43.918C34.1778 43.859 33.9822 43.7541 33.9206 43.6669C33.8863 43.6443 33.8527 43.6216 33.8176 43.5997C33.6016 43.4637 33.3795 43.3392 33.1521 43.2262C33.0218 43.1617 32.8903 43.1018 32.7571 43.045C32.7151 43.0274 32.673 43.0105 32.6302 42.9935C32.5133 42.9732 32.3791 42.9099 32.2725 42.8808C32.1334 42.8428 31.994 42.8095 31.8528 42.78C31.6066 42.7288 31.358 42.6902 31.1082 42.6651C31.0732 42.6615 31.0388 42.6589 31.0037 42.6561C30.869 42.6568 30.7345 42.6543 30.5994 42.6597C30.3122 42.6716 30.0264 42.7037 29.7417 42.7494C28.8532 42.8943 27.9318 42.0194 27.9053 41.0586C27.8776 40.0008 28.5355 39.1998 29.4873 39.0447Z" fill="#351700"/>
<path d="M11.0276 42.2032C12.0261 40.8291 13.4932 39.9274 15.076 39.6656C15.5032 39.5951 16.0018 39.7588 16.335 40.0439C16.6633 40.3246 16.9389 40.8196 16.9676 41.2816C16.9971 41.7613 16.9024 42.2761 16.6028 42.6533C16.2992 43.0358 15.9182 43.2787 15.4544 43.356C15.3784 43.3685 15.3046 43.3899 15.229 43.4064C15.0059 43.4833 14.7902 43.5784 14.5799 43.6899C14.3406 43.8519 14.1165 44.0359 13.9068 44.2418C13.8386 44.3237 13.7663 44.402 13.7028 44.489C13.4291 44.865 12.9902 45.133 12.5544 45.1917C12.1372 45.2479 11.6178 45.1137 11.2955 44.8126C10.9614 44.5011 10.6934 44.0691 10.6629 43.5749C10.6322 43.0823 10.7382 42.6012 11.0276 42.2032Z" fill="#351700"/>
<path d="M77.4603 49.5876C77.484 50.5113 77.4716 51.437 77.421 52.3618C69.7592 53.6627 66.1305 61.8696 65.2739 65.8105C65.2739 65.8105 62.9941 65.9445 62.4577 65.509C59.6416 64.035 54.6329 57.9917 57.1272 45.6103C58.3341 39.9824 57.5295 35.5015 47.673 28.5257C37.8166 21.5498 22.1267 25.9127 18.9083 28.5257C16.3335 30.616 15.0994 31.4066 14.8042 31.5406C21.6767 15.9549 35.5847 13.7767 35.5847 13.7767C62.8308 6.83598 74.643 34.6803 74.9292 35.3924C76.7078 39.818 77.3352 44.6935 77.4603 49.5876Z" fill="#FFF4D4"/>
<path d="M8.24709 12.245C14.3621 14.4961 18.5059 23.9028 19.7128 27.9227C25.4456 25.1087 29.1669 24.9077 35.2015 24.7067C34.531 22.5628 42.9459 16.0639 51.4948 17.0689C62.3813 18.3487 68.8945 26.1137 69.3974 27.1187L75.4319 20.2848C57.4087 -10.5882 23.1324 2.06117 8.24709 12.245Z" fill="#FFD355"/>
<path d="M8.24709 12.245C14.3621 14.4961 18.5059 23.9028 19.7128 27.9227C25.4456 25.1087 29.1669 24.9077 35.2015 24.7067C34.531 22.5628 42.9459 16.0639 51.4948 17.0689C62.3813 18.3487 68.8945 26.1137 69.3974 27.1187L75.4319 20.2848C70.4031 14.6234 56.0006 4.44633 38.6211 9.02905L8.24709 12.245Z" fill="#E2A700"/>
<path d="M8.24709 12.245C14.3621 14.4961 18.5059 23.9028 19.7128 27.9227C25.4456 25.1087 29.1669 24.9077 35.2015 24.7067C34.3969 18.1141 38.7552 11.0725 40.2303 8.52652C31.4802 4.10461 12.2865 9.4814 8.24709 12.245Z" fill="#FFC00C"/>
<path fill-rule="evenodd" clip-rule="evenodd" d="M1.23265 48.9349L11.0884 48.5805L11.1888 46.4701L1.18776 46.9254L1.23265 48.9349Z" fill="#007F77"/>
<path fill-rule="evenodd" clip-rule="evenodd" d="M36.3895 36.3659C41.855 37.2272 45.6511 42.8296 44.6755 49.0271C43.6998 55.2246 38.3664 59.3881 32.9009 58.5267C27.4354 57.6653 23.6394 52.063 24.615 45.8655C25.5906 39.668 30.924 35.5045 36.3895 36.3659ZM46.8149 46.8531C46.7106 40.6931 42.6167 35.3125 36.7021 34.3804C30.003 33.3246 23.7733 38.4176 22.6496 45.5557C22.6494 45.5572 22.6492 45.5586 22.6489 45.56C22.4422 45.4767 22.2167 45.3966 21.9762 45.3266C21.245 45.1139 20.3244 44.9835 19.3659 45.1837C19.2435 42.6715 18.5134 40.3648 17.3253 38.5431C15.8483 36.2787 13.6244 34.7193 10.9801 34.5809C8.33991 34.4427 5.92756 35.7549 4.15656 37.838C2.38499 39.9217 1.20421 42.824 0.979827 46.0477C0.755462 49.2711 1.52472 52.2821 3.00043 54.5447C4.47734 56.8092 6.70134 58.3685 9.34557 58.5069C11.9858 58.6451 14.3981 57.3329 16.1691 55.2499C17.8954 53.2194 19.0607 50.4118 19.3268 47.287C20.0156 47.005 20.7459 47.0616 21.42 47.2577C21.8399 47.3799 22.2068 47.5491 22.4739 47.6923C22.4271 53.9962 26.5629 59.5626 32.5883 60.5122C39.2874 61.568 45.5171 56.475 46.6409 49.3368C46.6635 49.1928 46.684 49.0489 46.7022 48.9053L64.0667 46.1066C67.3243 45.6557 70.5759 45.8053 72.9772 46.612C75.3859 47.4211 76.6572 50.3978 76.6954 52.2463L78.6851 52.1984C78.6215 49.125 76.3909 45.639 73.6104 44.705C70.8251 43.7694 67.2398 43.6386 63.7908 44.1173L63.7801 44.1188L46.8149 46.8531ZM15.6622 39.6518C16.8748 41.511 17.5576 44.0758 17.3607 46.9052C17.1638 49.7343 16.1296 52.2158 14.6608 53.9435C13.1913 55.6719 11.3377 56.5987 9.45446 56.5001C7.57525 56.4017 5.87479 55.2933 4.66344 53.436C3.45088 51.5769 2.76808 49.012 2.96501 46.1827C3.16193 43.3535 4.19605 40.872 5.66492 39.1443C7.13436 37.416 8.98799 36.4891 10.8712 36.5877C12.7504 36.6861 14.4509 37.7945 15.6622 39.6518Z" fill="#2FBBB3"/>
</svg>
